<?xml version="1.0" encoding="UTF-8"?>
<svg width="686px" height="657px" viewBox="0 0 686 657" version="1.1" xmlns="http://www.w3.org/2000/svg" xmlns:xlink="http://www.w3.org/1999/xlink">
    <title>Artboard</title>
    <defs>
        <linearGradient x1="50%" y1="0%" x2="50%" y2="100%" id="linearGradient-1">
            <stop stop-color="#2B2D2F" offset="0%"></stop>
            <stop stop-color="#131415" offset="100%"></stop>
        </linearGradient>
    </defs>
    <g id="Artboard" stroke="none" stroke-width="1" fill="none" fill-rule="evenodd">
        <g id="Group-6" transform="translate(96.000000, 81.000000)">
            <path d="M247.5,0 C384.190476,0 495,110.809524 495,247.5 C495,384.190476 384.190476,495 247.5,495 C110.809524,495 0,384.190476 0,247.5 C0,110.809524 110.809524,0 247.5,0 Z" id="Combined-Shape" fill="url(#linearGradient-1)"></path>
            <ellipse id="Oval" fill="#A1E87D" cx="244" cy="347.5" rx="27" ry="26.5"></ellipse>
            <ellipse id="Oval" fill="#A1E87D" cx="170.5" cy="320" rx="26.5" ry="27"></ellipse>
            <ellipse id="Oval" fill="#A1E87D" cx="317.5" cy="320" rx="26.5" ry="27"></ellipse>
            <circle id="Oval" fill="#F78C94" cx="141.5" cy="247.5" r="26.5"></circle>
            <circle id="Oval" fill="#A1E87D" cx="242.5" cy="148.5" r="26.5"></circle>
            <circle id="Oval" fill="#F78C94" cx="346.5" cy="247.5" r="26.5"></circle>
            <circle id="Oval" fill="#A1E87D" cx="168.5" cy="175.5" r="26.5"></circle>
            <circle id="Oval" fill="#A1E87D" cx="317.5" cy="174.5" r="26.5"></circle>
            <path d="M106,368 C99.2161049,359.228747 94.1522751,352.151824 90.8085106,346.769231 C83.0352115,334.256237 77.9706102,323.579937 74.7234043,314.923077 C71.0490484,305.12746 67.7890056,292.733447 65.787234,276.884615 C65.1813932,272.08793 64.5856486,264.126391 64,253" id="Line-3" stroke="#7AB8FC" stroke-width="53" stroke-linecap="round"></path>
            <path d="M424,366 C417.216105,357.228747 412.152275,350.151824 408.808511,344.769231 C401.035211,332.256237 395.97061,321.579937 392.723404,312.923077 C389.049048,303.12746 385.789006,290.733447 383.787234,274.884615 C383.181393,270.08793 382.585649,262.126391 382,251" id="Line-3" stroke="#F78C94" stroke-width="53" stroke-linecap="round" transform="translate(403.000000, 308.500000) scale(-1, 1) translate(-403.000000, -308.500000) "></path>
            <path d="M186,418.692308 C209.203837,424.897436 229.261391,428 246.172662,428 C263.083933,428 284.026379,424.333333 309,417" id="Line-7" stroke="#A1E87D" stroke-width="53" stroke-linecap="round"></path>
            <circle id="Oval" fill="#7AB8FC" cx="87.5" cy="162.5" r="26.5"></circle>
            <circle id="Oval" fill="#7AB8FC" cx="153.5" cy="96.5" r="26.5"></circle>
            <ellipse id="Oval" fill="#7AB8FC" cx="243" cy="72.5" rx="27" ry="26.5"></ellipse>
            <circle id="Oval" fill="#7AB8FC" cx="333.5" cy="96.5" r="26.5"></circle>
            <circle id="Oval" fill="#7AB8FC" cx="399.5" cy="162.5" r="26.5"></circle>
            <circle id="Oval" fill="#F78C94" cx="242.5" cy="247.5" r="26.5"></circle>
            <circle id="Oval" stroke="#1A1B1C" stroke-width="10" fill="#7AB8FC" cx="170.5" cy="418.5" r="31.5"></circle>
            <circle id="Oval" stroke="#1A1B1C" stroke-width="10" fill="#7AB8FC" cx="317.5" cy="418.5" r="31.5"></circle>
            <circle id="Oval" stroke="#222325" stroke-width="30" fill="#7AB8FC" cx="58.5" cy="245.5" r="41.5"></circle>
            <circle id="Oval" stroke="#222325" stroke-width="30" fill="#7AB8FC" cx="429.5" cy="245.5" r="41.5"></circle>
        </g>
    </g>
</svg>