<?xml version="1.0" encoding="UTF-8"?>
<svg width="24px" height="20px" viewBox="0 0 24 20" version="1.1" xmlns="http://www.w3.org/2000/svg" xmlns:xlink="http://www.w3.org/1999/xlink">
    <title>logo_weibo</title>
    <g id="Page-1" stroke="none" stroke-width="1" fill="none" fill-rule="evenodd">
        <g id="logo_weibo" fill-rule="nonzero">
            <path d="M18.0816349,9.74533188 C17.7359462,9.63796565 17.5101904,9.56161633 17.6771557,9.12022182 C18.0534155,8.12768065 18.0980963,7.28783812 17.6771557,6.67704356 C16.8940649,5.54850516 14.7587906,5.60815307 12.306047,6.64602665 C12.306047,6.64602665 11.5394177,6.98244084 11.7346025,6.37164628 C12.1108623,5.13574165 12.04972,4.11218357 11.4641657,3.51809042 C10.1237402,2.16050406 6.58924972,3.56342283 3.56506159,6.64602665 C1.30985442,8.95320768 0,11.394 0,13.50315 C0,17.5472781 5.10537514,20 10.0978723,20 C16.6424412,20 21,16.1395875 21,13.0712992 C21,11.2198281 19.45028,10.1724109 18.0816349,9.73578821 L18.0816349,9.74533188 Z" id="Path" fill="#467897"></path>
            <path d="M20.293492,4.13042246 C19.6130106,3.22199875 18.5772146,2.82054237 17.5801802,3.07531276 C17.3906791,3.11906122 17.2248656,3.25288001 17.1193479,3.44588788 C17.0138302,3.63889575 16.9750686,3.87307863 17.0159836,4.09696776 C17.1021205,4.56018665 17.4832762,4.85355862 17.8708922,4.75576796 C18.3554122,4.62966949 18.8593129,4.8252508 19.1930933,5.26530874 C19.5376409,5.7259542 19.6194709,6.33585907 19.4838053,6.87885455 C19.4235095,7.0975968 19.4407369,7.33435313 19.5290272,7.53765475 C19.6173175,7.74095637 19.7702104,7.89536267 19.9532513,7.96484551 C20.3322536,8.09609086 20.7327901,7.84904078 20.8619954,7.40383596 C21.1742416,6.24836217 20.9481323,4.98223053 20.2698044,4.0789537 L20.293492,4.13042246 L20.293492,4.13042246 Z" id="Path" fill="#E7CD79"></path>
            <path d="M22.4609683,2.12133443 C20.9593819,0.351180834 18.7394509,-0.316176538 16.6918332,0.138194439 C16.465812,0.187891264 16.2666448,0.329882194 16.1413261,0.535769043 C16.0160074,0.739289376 15.9712507,0.990140019 16.0182453,1.22915809 C16.0652398,1.46817615 16.1995098,1.67879603 16.3942013,1.8113209 C16.5888928,1.94621228 16.8238654,1.99117608 17.0498866,1.94147925 C18.5514729,1.59596799 20.1134808,2.12843398 21.1428843,3.33535688 C22.1700499,4.54227979 22.5146763,6.23670489 22.0447312,7.78440603 C21.9708827,8.01632455 21.9887854,8.27190822 22.0939636,8.49199416 C22.1991417,8.7120801 22.3826441,8.87773619 22.6041896,8.95109817 C23.0607077,9.11675425 23.5485554,8.84697149 23.7074416,8.36183581 C24.3720782,6.177542 23.8864683,3.78262831 22.4318764,2.07873715 L22.4609683,2.12133443 L22.4609683,2.12133443 Z" id="Path" fill="#467897"></path>
            <path d="M10.985434,18.9500161 C6.85558435,19.3166653 3.28434988,17.626987 3.01601943,15.1686707 C2.74768897,12.7147719 5.88227659,10.4221104 10.017005,10.0510438 C14.1492941,9.67997718 17.7156498,11.3718642 17.9839803,13.8301805 C18.2523107,16.2752444 15.1177231,18.5789495 10.9878734,18.9455987 L10.985434,18.9500161 Z" id="Path" fill="#E7CD79"></path>
            <path d="M10.4417513,11.1375519 C8.45500443,10.6188313 6.20943817,11.6118108 5.34424195,13.3655806 C4.466721,15.158872 5.31712754,17.1423609 7.32359399,17.7944669 C9.40400883,18.4663336 11.8566306,17.4363026 12.7095021,15.5022157 C13.5500488,13.6150605 12.4975167,11.6710932 10.4417513,11.1375519 Z" id="Path" fill="#FFFFFF"></path>
            <path d="M9.78116512,15.1103594 C9.34477857,15.8778036 8.40507503,16.2117298 7.69561224,15.8602286 C6.99685833,15.5116566 6.79071254,14.6241161 7.23245352,13.8742469 C7.66348563,13.1331652 8.57373977,12.7992391 9.2751709,13.1243777 C9.98731091,13.4524455 10.2121972,14.3370568 9.78116512,15.1103594 Z" id="Path" fill="#467897"></path>
            <path d="M10.2468,12.9607625 C10.0084738,12.8617389 9.92982618,12.5594565 10.0680554,12.3092917 C10.2086678,12.056521 10.511342,11.9262268 10.7496682,12.0434916 C10.9927609,12.1425151 11.0690253,12.4421917 10.9331793,12.7105977 L10.9450956,12.6793271 C10.8020999,12.9425213 10.4898927,13.0702096 10.2468,12.9607625 Z" id="Path" fill="#E7CD79"></path>
        </g>
    </g>
</svg>