<?xml version="1.0" encoding="UTF-8"?>
<svg width="200px" height="163px" viewBox="0 0 200 163" version="1.1" xmlns="http://www.w3.org/2000/svg" xmlns:xlink="http://www.w3.org/1999/xlink">
    <title>Untitled</title>
    <g id="Page-1" stroke="none" stroke-width="1" fill="none" fill-rule="evenodd">
        <g id="logo_weibo" fill-rule="nonzero">
            <path d="M150.175781,78.1131982 C147.304687,77.2342919 145.429688,76.6092919 146.816406,72.9960107 C149.941406,64.8710107 150.3125,57.9960107 146.816406,52.9960107 C140.3125,43.7577294 122.578125,44.2460107 102.207031,52.7421044 C102.207031,52.7421044 95.8398437,55.4960107 97.4609375,50.4960107 C100.585938,40.3788232 100.078125,31.9999169 95.2148438,27.1366357 C84.0820312,16.0233544 54.7265625,27.5077294 29.609375,52.7421044 C10.8789063,71.6288232 0,91.6092919 0,108.874917 C0,141.980386 42.4023438,162.058511 83.8671875,162.058511 C138.222656,162.058511 174.414062,130.456948 174.414062,105.339761 C174.414062,90.1835107 161.542969,81.6092919 150.175781,78.0350732 L150.175781,78.1131982 Z" id="Path" fill="#467897"></path>
            <path d="M166.035156,35.7694482 C159.863281,28.8749169 150.46875,25.8280419 141.425781,27.7616357 C139.707031,28.0936669 138.203125,29.1092919 137.246094,30.5741357 C136.289062,32.0389794 135.9375,33.8163232 136.308594,35.5155419 C137.089844,39.0311669 140.546875,41.2577294 144.0625,40.5155419 C148.457031,39.5585107 153.027344,41.0428857 156.054688,44.3827294 C159.179688,47.8788232 159.921875,52.5077294 158.691406,56.6288232 C158.144531,58.2889794 158.300781,60.0858544 159.101563,61.6288232 C159.902344,63.1717919 161.289063,64.3436669 162.949219,64.8710107 C166.386719,65.8671044 170.019531,63.9921044 171.191406,60.6131982 C174.023438,51.8436669 171.972656,42.2342919 165.820313,35.3788232 L166.035156,35.7694482 L166.035156,35.7694482 Z" id="Path" fill="#E7CD79"></path>
            <path d="M186.152344,17.5077294 C173.046875,2.89835442 153.671875,-2.60945808 135.800781,1.14054192 C133.828125,1.55069817 132.089844,2.72257317 130.996094,4.42179192 C129.902344,6.10147942 129.511719,8.17179192 129.921875,10.1444482 C130.332031,12.1171044 131.503906,13.8553857 133.203125,14.9491357 C134.902344,16.0624169 136.953125,16.4335107 138.925781,16.0233544 C152.03125,13.1717919 165.664062,17.5663232 174.648437,27.5272607 C183.613281,37.4881982 186.621094,51.4725732 182.519531,64.2460107 C181.875,66.1600732 182.03125,68.2694482 182.949219,70.0858544 C183.867187,71.9022607 185.46875,73.2694482 187.402344,73.8749169 C191.386719,75.2421044 195.644531,73.0155419 197.03125,69.0116357 C202.832031,50.9842919 198.59375,31.2186669 185.898437,17.1561669 L186.152344,17.5077294 L186.152344,17.5077294 Z" id="Path" fill="#467897"></path>
            <path d="M83.9648438,150.242104 C50.8984375,153.484292 22.3046875,138.542886 20.15625,116.804604 C18.0078125,95.1053857 43.1054688,74.8319482 76.2109375,71.5506982 C109.296875,68.2694482 137.851563,83.2303857 140,104.968667 C142.148438,126.589761 117.050781,146.960854 83.984375,150.203042 L83.9648438,150.242104 Z" id="Path" fill="#E7CD79"></path>
            <path d="M87.2851562,88.2889794 C71.5429688,84.1874169 53.75,92.0389794 46.8945313,105.906167 C39.9414063,120.085854 46.6796875,135.769448 62.578125,140.925698 C79.0625,146.238198 98.4960938,138.093667 105.253906,122.800698 C111.914063,107.878823 103.574219,92.5077294 87.2851562,88.2889794 Z" id="Path" fill="#FFFFFF"></path>
            <path d="M75.2539063,124.421792 C72.0703125,129.538979 65.2148438,131.765542 60.0390625,129.421792 C54.9414063,127.097573 53.4375,121.179604 56.6601563,116.179604 C59.8046875,111.238198 66.4453125,109.011636 71.5625,111.179604 C76.7578125,113.367104 78.3984375,119.265542 75.2539063,124.421792 Z" id="Path" fill="#467897"></path>
            <path d="M80.0976562,113.015542 C78.1445312,112.273354 77.5,110.007729 78.6328125,108.132729 C79.7851562,106.238198 82.265625,105.261636 84.21875,106.140542 C86.2109375,106.882729 86.8359375,109.128823 85.7226562,111.140542 L85.8203125,110.906167 C84.6484375,112.878823 82.0898437,113.835854 80.0976562,113.015542 Z" id="Path" fill="#E7CD79"></path>
        </g>
    </g>
</svg>