<?xml version="1.0" encoding="UTF-8"?>
<svg width="22px" height="22px" viewBox="0 0 22 22" version="1.1" xmlns="http://www.w3.org/2000/svg" xmlns:xlink="http://www.w3.org/1999/xlink">
    <title>logo_weibo</title>
    <g id="Page-1" stroke="none" stroke-width="1" fill="none" fill-rule="evenodd">
        <g id="logo_weibo" transform="translate(2.000000, 3.000000)" fill-rule="nonzero">
            <path d="M13.7764838,7.15819497 C13.5131019,7.07609138 13.3410974,7.0177066 13.4683091,6.68016962 C13.7549832,5.92116756 13.7890258,5.27893503 13.4683091,4.81185684 C12.8716685,3.94885689 11.2447928,3.99446999 9.37603583,4.78813802 C9.37603583,4.78813802 8.79193729,5.04539594 8.9406495,4.57831774 C9.22732363,3.6332142 9.18073908,2.85049332 8.73460246,2.39618679 C7.71332587,1.35803252 5.02038074,2.43085275 2.7162374,4.78813802 C0.997984323,6.55245293 0,8.41894119 0,10.0318206 C0,13.1243891 3.88980963,15 7.69361702,15 C12.6799552,15 16,12.0479198 16,9.70158171 C16,8.28575092 14.8192609,7.4847848 13.7764838,7.15089687 L13.7764838,7.15819497 Z" id="Path" fill="#467897"></path>
            <path d="M15.470119,2.90433797 C14.959758,2.177599 14.182911,1.8564339 13.4351352,2.06025021 C13.2930093,2.09524897 13.1686492,2.202304 13.0895109,2.3567103 C13.0103727,2.5111166 12.9813015,2.69846291 13.0119877,2.87757421 C13.0765904,3.24814932 13.3624572,3.4828469 13.6531691,3.40461437 C14.0165591,3.30373559 14.3944847,3.46020064 14.64482,3.812247 C14.9032306,4.18076336 14.9646032,4.66868726 14.862854,5.10308364 C14.8176321,5.27807744 14.8305526,5.4674825 14.8967704,5.6301238 C14.9629881,5.7927651 15.0776578,5.91629014 15.2149385,5.9718764 C15.4991902,6.07687269 15.7995926,5.87923263 15.8964966,5.52306877 C16.1306812,4.59868974 15.9610992,3.58578443 15.4523533,2.86316296 L15.470119,2.90433797 L15.470119,2.90433797 Z" id="Path" fill="#E7CD79"></path>
            <path d="M16.8457262,1.64992678 C15.7195364,0.273140648 14.0545882,-0.245915085 12.5188749,0.107484563 C12.349359,0.14613765 12.1999836,0.25657504 12.1059946,0.416709256 C12.0120056,0.575002848 11.9784381,0.770108904 12.0136839,0.956011844 C12.0489298,1.14191478 12.1496323,1.30573025 12.295651,1.40880514 C12.4416696,1.51372066 12.617899,1.5486925 12.7874149,1.51003942 C13.9136047,1.24130844 15.0851106,1.65544865 15.8571632,2.59416646 C16.6275374,3.53288428 16.8860072,4.85077047 16.5335484,6.05453802 C16.478162,6.23491909 16.491589,6.43370639 16.5704727,6.60488435 C16.6493563,6.7760623 16.7869831,6.90490592 16.9531422,6.96196524 C17.2955308,7.09080886 17.6614166,6.88097782 17.7805812,6.50365007 C18.2790586,4.80475489 17.9148512,2.94204424 16.8239073,1.61679556 L16.8457262,1.64992678 L16.8457262,1.64992678 Z" id="Path" fill="#467897"></path>
            <path d="M7.85598496,13.9611237 C4.82742852,14.2462952 2.20852325,12.932101 2.01174758,11.0200772 C1.81497191,9.11148927 4.1136695,7.32830808 7.14580368,7.03970072 C10.176149,6.75109336 12.7914765,8.06700549 12.9882522,9.97902925 C13.1850279,11.8807456 10.8863303,13.6725163 7.85777383,13.9576879 L7.85598496,13.9611237 Z" id="Path" fill="#E7CD79"></path>
            <path d="M8.08131348,8.09825138 C6.59125332,7.72773663 4.90707863,8.43700772 4.25818146,9.68970044 C3.60004075,10.9706229 4.23784566,12.3874007 5.74269549,12.8531906 C7.30300662,13.3330955 9.14247294,12.597359 9.78212656,11.2158683 C10.4125366,9.86790039 9.62313751,8.47935227 8.08131348,8.09825138 Z" id="Path" fill="#FFFFFF"></path>
            <path d="M6.85411008,11.4069063 C6.56318572,11.9185358 5.93671669,12.1411532 5.4637415,11.9068191 C4.99790555,11.6744377 4.86047502,11.0827441 5.15496901,10.5828313 C5.44232375,10.0887768 6.04915985,9.86615941 6.5167806,10.0829185 C6.99154061,10.3016303 7.14146482,10.8913712 6.85411008,11.4069063 Z" id="Path" fill="#467897"></path>
            <path d="M7.24679998,9.96076247 C7.00847382,9.86173891 6.92982618,9.55945645 7.06805536,9.30929166 C7.2086678,9.05652098 7.51134203,8.92622682 7.74966819,9.04349157 C7.99276088,9.14251513 8.06902525,9.44219171 7.93317934,9.71059768 L7.94509565,9.67932708 C7.80209995,9.94252129 7.48989267,10.0702096 7.24679998,9.96076247 Z" id="Path" fill="#E7CD79"></path>
        </g>
    </g>
</svg>